<svg width="32" height="32" viewBox="0 0 32 32" fill="none" xmlns="http://www.w3.org/2000/svg">
<path d="M14.0635 7.1462L14.8858 7.35998C15.6165 7.54997 16.3837 7.54997 17.1144 7.35998L17.9367 7.1462C20.5047 6.47856 23.1617 6.21942 25.8103 6.37831C26.1576 6.39914 26.4287 6.68692 26.4287 7.0349V21.1439C26.4287 21.4906 26.1366 21.7657 25.7905 21.745C23.0248 21.579 20.2503 21.8496 17.5688 22.5468L16.6112 22.7958C16.2105 22.8999 15.7897 22.8999 15.389 22.7958L14.4314 22.5468C11.7499 21.8496 8.97538 21.579 6.2097 21.745C5.86361 21.7657 5.57153 21.4906 5.57153 21.1439V7.0349C5.57153 6.68692 5.84256 6.39914 6.18992 6.37831C8.83848 6.21942 11.4955 6.47856 14.0635 7.1462Z" stroke="#BBBBCC" stroke-width="2"/>
<path d="M15.0171 7.04718H17.0171V23.0472H15.0171V7.04718Z" fill="#BBBBCC"/>
<path d="M6.28589 25.2652C9.14736 24.7882 12.5395 25.6857 14.8014 26.3278C15.5867 26.5508 16.4137 26.5508 17.1989 26.3278C19.4608 25.6857 22.853 24.7882 25.7145 25.2652" stroke="#BBBBCC" stroke-width="2" stroke-linecap="round"/>
</svg>
