<svg width="32" height="32" viewBox="0 0 32 32" fill="none" xmlns="http://www.w3.org/2000/svg">
<rect x="7" y="16" width="10" height="18" rx="1" transform="rotate(-90 7 16)" fill="#6F7AEC"/>
<path fill-rule="evenodd" clip-rule="evenodd" d="M11.5543 4.07275C8.48674 4.07275 6 6.55949 6 9.62704V12.4631C6.29712 12.3102 6.63056 12.2245 6.98286 12.2245H7.96571V9.62704C7.96571 7.64513 9.57237 6.03847 11.5543 6.03847H20.4701C22.452 6.03847 24.0587 7.64513 24.0587 9.62704V12.2242H25.0416C25.3939 12.2242 25.7273 12.31 26.0244 12.4629V9.62704C26.0244 6.55949 23.5377 4.07275 20.4701 4.07275H11.5543ZM21.6556 15.4721H10.3688V16.0242H21.6556V15.4721Z" fill="#6F7AEC"/>
<path fill-rule="evenodd" clip-rule="evenodd" d="M20.7652 14.3022C20.7652 12.4383 22.2391 10.9272 24.0571 10.9272H25.2081C27.0262 10.9272 28.5 12.4383 28.5 14.3022V19.552C28.5 21.416 27.0262 22.927 25.2081 22.927H25.047L6.95316 22.9272L6.79188 22.9272C4.97383 22.9272 3.5 21.4162 3.5 19.5522V14.3025C3.5 12.4385 4.97382 10.9275 6.79188 10.9275H7.94288C9.76094 10.9275 11.2348 12.4385 11.2348 14.3025V14.6662H20.7652V14.3022ZM8.93289 20.8975H23.0673L25.2081 20.8973C25.9328 20.8973 26.5203 20.295 26.5203 19.552V14.3022C26.5203 13.5593 25.9328 12.957 25.2081 12.957H24.0571C23.3324 12.957 22.745 13.5593 22.745 14.3022V16.696H9.25503V14.3025C9.25503 13.5595 8.66756 12.9572 7.94288 12.9572H6.79188C6.0672 12.9572 5.47973 13.5595 5.47973 14.3025V19.5522C5.47973 20.2952 6.0672 20.8975 6.79188 20.8975L8.93289 20.8975Z" fill="#6F7AEC"/>
<rect x="5" y="12" width="5" height="10" rx="2.5" fill="#6F7AEC"/>
<rect x="22" y="12" width="5" height="10" rx="2.5" fill="#6F7AEC"/>
<rect x="8" y="22" width="6" height="17" transform="rotate(-90 8 22)" fill="#6F7AEC"/>
<rect x="8.28564" y="23.9272" width="2" height="4" rx="1" fill="#6F7AEC"/>
<rect x="21.7141" y="23.9272" width="2" height="4" rx="1" fill="#6F7AEC"/>
<path d="M24 12C22.5 12 21.5 12.5 21.5 16L10.5 15.9999C10.5 12.4999 9.5 12 8 12" stroke="#EEF0FD" stroke-width="1.5" stroke-linecap="round" stroke-linejoin="round"/>
</svg>
