<svg width="96" height="78" viewBox="0 0 96 78" fill="none" xmlns="http://www.w3.org/2000/svg">
<path d="M91.8711 23.7109V47.7109" stroke="#818198" stroke-width="6" stroke-linecap="round"/>
<path d="M17.999 31.7224C17.999 28.6774 20.9994 26.5398 23.8774 27.5344V27.5344C39.505 32.935 56.493 32.935 72.1207 27.5344V27.5344C74.9986 26.5398 77.999 28.6774 77.999 31.7224V56.8145C77.999 62.393 74.4618 67.3579 69.1892 69.18V69.18C55.4607 73.9243 40.5373 73.9243 26.8088 69.18V69.18C21.5363 67.3579 17.999 62.393 17.999 56.8145V31.7224Z" fill="#1F1E2B" stroke="#CDCDD5" stroke-width="6"/>
<path d="M6.80749 27.2357C3.70836 25.982 3.70835 21.5942 6.80749 20.3405L43.9521 5.31393C46.6358 4.22823 49.6366 4.22823 52.3204 5.31393L89.4649 20.3405C92.5641 21.5942 92.5641 25.982 89.4649 27.2357L52.3203 42.2622C49.6366 43.3479 46.6359 43.3479 43.9521 42.2622L6.80749 27.2357Z" fill="#1F1E2B" stroke="#CDCDD5" stroke-width="6"/>
</svg>
