<svg width="96" height="78" viewBox="0 0 96 78" fill="none" xmlns="http://www.w3.org/2000/svg">
<path d="M91.8711 24.0859V48.0859" stroke="#BBBBCC" stroke-width="6" stroke-linecap="round"/>
<path d="M17.999 32.0974C17.999 29.0524 20.9994 26.9148 23.8774 27.9094C39.505 33.31 56.493 33.31 72.1207 27.9094C74.9986 26.9148 77.999 29.0524 77.999 32.0974V57.1895C77.999 62.768 74.4618 67.7329 69.1892 69.555C55.4607 74.2993 40.5373 74.2993 26.8088 69.555C21.5363 67.7329 17.999 62.768 17.999 57.1895V32.0974Z" fill="#F5F5F5" stroke="#656B80" stroke-width="6"/>
<path d="M6.80749 27.6107C3.70836 26.357 3.70835 21.9692 6.80749 20.7155L43.9521 5.68893C46.6358 4.60323 49.6366 4.60323 52.3203 5.68893L89.465 20.7154C92.5641 21.9692 92.5641 26.357 89.4649 27.6107L52.3203 42.6372C49.6366 43.7229 46.6358 43.7229 43.9521 42.6372L6.80749 27.6107Z" fill="#F5F5F5" stroke="#656B80" stroke-width="6"/>
</svg>
