<svg width="56" height="80" viewBox="0 0 56 80" fill="none" xmlns="http://www.w3.org/2000/svg">
<path d="M12 24C12 22.8954 12.8954 22 14 22H42C43.1046 22 44 22.8954 44 24V76.0406C44 77.6812 42.1336 78.6239 40.8131 77.6504L29.1869 69.0784C28.4812 68.5581 27.5188 68.5581 26.8131 69.0784L15.1869 77.6504C13.8664 78.6239 12 77.6812 12 76.0406V24Z" fill="#F66868"/>
<path fill-rule="evenodd" clip-rule="evenodd" d="M12 52.8913V26C12 24.8954 12.8954 24 14 24H42.0571C43.1617 24 44.0571 24.8954 44.0571 26V52.8913C39.5338 56.1085 34.0021 58.0003 28.0285 58.0003C22.055 58.0003 16.5233 56.1085 12 52.8913Z" fill="#E05B5B"/>
<circle cx="28" cy="28" r="28" fill="#DFDFDF"/>
<circle cx="27.9999" cy="27.9999" r="24.0702" fill="#B6B6B6"/>
<path d="M37.9344 33.244C36.0813 39.8743 29.4648 41.6162 23.5497 40.8214C18.9537 36.8476 15.9176 30.2392 19.7284 24.6214C19.1421 24.2295 18.5139 23.6852 18.7652 22.8686C20.3879 17.0767 27.3186 16.3255 32.0507 18.013C32.4904 15.8247 36.3012 17.5993 34.8878 19.4065C39.0023 21.8888 42.6142 27.1472 40.2481 32.1009C39.5048 33.6904 39.0441 33.5053 37.9344 33.2549V33.244Z" fill="#A3A3A3"/>
<path d="M36.9344 32.244C35.0813 38.8743 28.4648 40.6162 22.5497 39.8214C17.9537 35.8476 14.9176 29.2392 18.7284 23.6214C18.1421 23.2295 17.5139 22.6852 17.7652 21.8686C19.3879 16.0767 26.3186 15.3255 31.0507 17.013C31.4904 14.8247 35.3012 16.5993 33.8878 18.4065C38.0023 20.8888 41.6142 26.1472 39.2481 31.1009C38.5048 32.6904 38.0441 32.5053 36.9344 32.2549V32.244Z" fill="#DFDFDF"/>
</svg>
