<svg width="24" height="24" viewBox="0 0 24 24" fill="none" xmlns="http://www.w3.org/2000/svg">
<path d="M14.3574 4H9.64264C8.84699 4 8.08393 4.31607 7.52132 4.87868L4.87868 7.52132C4.31607 8.08393 4 8.84699 4 9.64264V14.3574C4 15.153 4.31607 15.9161 4.87868 16.4787L7.52132 19.1213C8.08393 19.6839 8.84699 20 9.64264 20H14.3574C15.153 20 15.9161 19.6839 16.4787 19.1213L19.1213 16.4787C19.6839 15.9161 20 15.153 20 14.3574V9.64264C20 8.84699 19.6839 8.08393 19.1213 7.52132L16.4787 4.87868C15.9161 4.31607 15.153 4 14.3574 4Z" stroke="#656B80" stroke-width="1.5"/>
<path d="M11.9839 15.9825C11.9892 15.9772 11.9946 15.9721 11.9999 15.9671C12.0053 15.9721 12.0106 15.9772 12.016 15.9825C12.0218 15.9883 12.0274 15.9942 12.0328 16C12.0274 16.0058 12.0218 16.0117 12.016 16.0175C12.0106 16.0228 12.0053 16.0279 11.9999 16.0329C11.9946 16.0279 11.9892 16.0228 11.9839 16.0175C11.9781 16.0117 11.9725 16.0058 11.9671 16C11.9725 15.9942 11.9781 15.9883 11.9839 15.9825Z" fill="#656B80" stroke="#656B80" stroke-width="2.28571"/>
<path d="M12.9998 8.62174C13 7.5 12.9999 7 12 7C11.0001 7 11 7.48931 10.9998 8.62174C10.999 13.5 11.5002 14 12 14C12.4998 14 12.999 13.5 12.9998 8.62174Z" fill="#656B80"/>
</svg>
