<svg width="74" height="120" viewBox="0 0 74 120" fill="none" xmlns="http://www.w3.org/2000/svg">
<path d="M67.5003 75.0938C67.5003 88.8633 52.77 93.8438 42.0005 93.8438C31.2311 93.8438 31.5006 93.3633 31.5006 82.5938C31.5006 71.8242 40.231 65.3438 51.0005 65.3438C61.7699 65.3438 67.5003 67.3242 67.5003 75.0938Z" stroke="#CDCDD5" stroke-width="5.99997"/>
<path d="M8.99999 66.0937C8.99999 61.1232 13.0294 57.0937 17.9999 57.0937H44.9996C49.9702 57.0937 53.9996 61.1232 53.9996 66.0937V102.094C53.9996 107.064 49.9702 111.094 44.9996 111.094H17.9999C13.0294 111.094 8.99999 107.064 8.99999 102.094V66.0937Z" fill="#1F1E2B" stroke="#CDCDD5" stroke-width="5.99997"/>
<path d="M33.8461 5.90625C29.9996 6.75 11.5062 12.1734 45.781 20.6285C63.6864 25.0455 -6.75013 25.875 20.445 32.4062C26.5471 33.8717 49.8744 37.125 33.8461 45.6562" stroke="#818198" stroke-width="5.99997" stroke-linecap="round"/>
</svg>
