<svg width="120" height="120" viewBox="0 0 120 120" fill="none" xmlns="http://www.w3.org/2000/svg">
<circle cx="42.048" cy="88.9346" r="9.86097" transform="rotate(15 42.048 88.9346)" stroke="#CDCDD5" stroke-width="6"/>
<circle cx="85.6563" cy="91.7463" r="9.86511" transform="rotate(15 85.6563 91.7463)" stroke="#CDCDD5" stroke-width="6"/>
<path d="M95.1879 94.2985L105.171 57.0416M51.5726 91.4859L61.5556 54.2287M61.5556 54.2287L65.9925 37.67C85.863 42.9943 101.969 41.394 109.608 40.4829L105.171 57.0416M61.5556 54.2287C70.5249 56.632 88.4932 59.6719 105.171 57.0416" stroke="#CDCDD5" stroke-width="6" stroke-linecap="round" stroke-linejoin="round"/>
<path d="M61.554 54.2286C70.5233 56.6319 88.4917 59.6717 105.169 57.0415" stroke="#818198" stroke-width="6" stroke-linecap="round" stroke-linejoin="round"/>
<path d="M51.5723 91.4856L65.9922 37.6699" stroke="#CDCDD5" stroke-width="6" stroke-linecap="round" stroke-linejoin="round"/>
<circle cx="8.57143" cy="8.57143" r="8.57143" transform="matrix(-0.707107 -0.707107 -0.707107 0.707107 42.2139 42.748)" stroke="#CDCDD5" stroke-width="6"/>
<path d="M24.0291 36.6857L45.2422 15.4727C40.6965 16.9879 36.1508 18.5031 30.0899 15.4727" stroke="#CDCDD5" stroke-width="6" stroke-linecap="round" stroke-linejoin="round"/>
<path d="M45.2422 15.4727C40.6965 16.9879 36.1508 18.5031 30.0899 15.4727" stroke="#818198" stroke-width="6" stroke-linecap="round" stroke-linejoin="round"/>
</svg>
