<svg width="24" height="24" viewBox="0 0 24 24" fill="none" xmlns="http://www.w3.org/2000/svg">
<path fill-rule="evenodd" clip-rule="evenodd" d="M16.7568 5.763C15.2499 5.09489 13.5448 4.78769 12 4.78769C8.02944 4.78769 3 6.81713 3 11.7877C3 14.0887 4.07782 15.7594 5.62945 16.8903L6.70621 15.8135C5.36624 14.9116 4.5 13.6204 4.5 11.7877C4.5 9.90231 5.41672 8.59005 6.82284 7.68507C8.2823 6.74575 10.2336 6.28769 12 6.28769C13.1866 6.28769 14.4566 6.49439 15.6049 6.91483L16.7568 5.763ZM8.09602 16.5451C9.32009 17.0432 10.7094 17.2877 12 17.2877C13.7664 17.2877 15.7177 16.8296 17.1772 15.8903C18.5833 14.9853 19.5 13.6731 19.5 11.7877C19.5 9.90231 18.5833 8.59005 17.1772 7.68507C17.1323 7.6562 17.087 7.62779 17.0412 7.59984L18.1267 6.51436C19.8081 7.64526 21 9.36798 21 11.7877C21 16.7583 15.9706 18.7877 12 18.7877C10.3575 18.7877 8.53374 18.4404 6.95981 17.6813L8.09602 16.5451Z" fill="#656B80"/>
<path fill-rule="evenodd" clip-rule="evenodd" d="M14.1229 8.39687C13.5076 8.01088 12.7799 7.78769 12 7.78769C9.79086 7.78769 8 9.57855 8 11.7877C8 12.5676 8.22319 13.2953 8.60918 13.9106L9.71538 12.8044C9.57695 12.4938 9.5 12.1497 9.5 11.7877C9.5 10.407 10.6193 9.28769 12 9.28769C12.362 9.28769 12.7061 9.36464 13.0167 9.50307L14.1229 8.39687ZM10.7109 13.9302C11.0873 14.1571 11.5284 14.2877 12 14.2877C13.3807 14.2877 14.5 13.1684 14.5 11.7877C14.5 11.3161 14.3694 10.875 14.1425 10.4986L15.2229 9.41814C15.7114 10.0814 16 10.9008 16 11.7877C16 13.9968 14.2091 15.7877 12 15.7877C11.1131 15.7877 10.2937 15.4991 9.63045 15.0106L10.7109 13.9302Z" fill="#656B80"/>
<path d="M19.9248 5.07016L5.78267 19.2123" stroke="#656B80" stroke-width="1.5" stroke-linecap="round"/>
</svg>
