<svg width="24" height="24" viewBox="0 0 24 24" fill="none" xmlns="http://www.w3.org/2000/svg">
<mask id="path-1-outside-1_8470_63402" maskUnits="userSpaceOnUse" x="3.71851" y="4.35034" width="16" height="16" fill="black">
<rect fill="white" x="3.71851" y="4.35034" width="16" height="16"/>
<path fill-rule="evenodd" clip-rule="evenodd" d="M10.8635 6.91531C10.8635 6.60327 11.1179 6.35034 11.4317 6.35034H12.5682C12.882 6.35034 13.1365 6.60327 13.1365 6.91531C13.1365 7.33153 13.423 7.68608 13.8053 7.85071C14.1265 7.98905 14.4285 8.16318 14.7062 8.36803C15.0437 8.61704 15.4971 8.6879 15.8609 8.4791C16.1325 8.3231 16.4802 8.41568 16.6369 8.68589L17.2052 9.66444C17.3622 9.93464 17.269 10.2802 16.9974 10.4362C16.6349 10.6442 16.4697 11.0713 16.5169 11.4865C16.5361 11.655 16.5459 11.8264 16.5459 12C16.5459 12.1736 16.5361 12.3449 16.5169 12.5135C16.4697 12.9287 16.6349 13.3557 16.9974 13.5638C17.269 13.7198 17.3622 14.0653 17.2052 14.3355L16.6369 15.3141C16.4802 15.5843 16.1325 15.6769 15.8609 15.5209C15.4971 15.3121 15.0437 15.3829 14.7062 15.6319C14.4285 15.8368 14.1265 16.0109 13.8053 16.1493C13.423 16.3139 13.1365 16.6685 13.1365 17.0847C13.1365 17.3967 12.882 17.6496 12.5682 17.6496H11.4317C11.1179 17.6496 10.8635 17.3967 10.8635 17.0847C10.8635 16.6684 10.5769 16.3139 10.1947 16.1493C9.87343 16.0109 9.57142 15.8368 9.29372 15.6319C8.9563 15.383 8.50303 15.3121 8.13937 15.5209C7.86746 15.6769 7.52007 15.5843 7.36303 15.3141L6.79479 14.3355C6.63774 14.0653 6.73097 13.7198 7.00289 13.5638C7.36522 13.3558 7.53036 12.9289 7.48311 12.5138C7.46391 12.3452 7.45405 12.1737 7.45405 12C7.45405 11.8262 7.46391 11.6548 7.48311 11.4861C7.53036 11.071 7.36523 10.6442 7.00289 10.4362C6.73097 10.2802 6.63774 9.93464 6.79479 9.66444L7.36303 8.68589C7.52007 8.41568 7.86746 8.3231 8.13937 8.4791C8.50304 8.68785 8.95631 8.61702 9.29375 8.36807C9.57143 8.1632 9.87343 7.98907 10.1946 7.85073C10.5769 7.68609 10.8635 7.33153 10.8635 6.91531ZM12 14.7118C10.4936 14.7118 9.27243 13.4977 9.27243 12C9.27243 10.5023 10.4936 9.28817 12 9.28817C13.5064 9.28817 14.7276 10.5023 14.7276 12C14.7276 13.4977 13.5064 14.7118 12 14.7118Z"/>
</mask>
<path d="M16.6369 8.68589L14.907 9.68955L14.9074 9.69023L16.6369 8.68589ZM17.2052 9.66444L15.4756 10.6688L15.476 10.6694L17.2052 9.66444ZM17.2052 14.3355L15.476 13.3305L15.4756 13.3312L17.2052 14.3355ZM16.6369 15.3141L14.9074 14.3097L14.907 14.3104L16.6369 15.3141ZM7.36303 15.3141L5.63349 16.3184L5.63387 16.3191L7.36303 15.3141ZM6.79479 14.3355L8.52433 13.3312L8.52395 13.3305L6.79479 14.3355ZM6.79479 9.66444L8.52395 10.6694L8.52433 10.6688L6.79479 9.66444ZM7.36303 8.68589L5.63387 7.6809L5.63349 7.68155L7.36303 8.68589ZM10.1946 7.85073L9.40353 6.01385L10.1946 7.85073ZM7.00289 10.4362L7.99852 8.70163L7.99815 8.70142L7.00289 10.4362ZM9.29372 15.6319L10.4811 14.0225L9.29372 15.6319ZM8.13937 15.5209L9.13463 17.2557L9.13504 17.2554L8.13937 15.5209ZM13.8053 16.1493L13.0142 14.3124L13.8053 16.1493ZM14.7062 15.6319L15.8936 17.2413L14.7062 15.6319ZM10.1947 16.1493L10.9858 14.3124L10.1947 16.1493ZM16.5169 12.5135L18.5041 12.7395L16.5169 12.5135ZM16.9974 13.5638L17.9934 11.8294L17.993 11.8292L16.9974 13.5638ZM14.7062 8.36803L15.8935 6.75862L14.7062 8.36803ZM15.8609 8.4791L16.8565 10.2136L16.8569 10.2134L15.8609 8.4791ZM11.4317 4.35034C10.0244 4.35034 8.86349 5.48773 8.86349 6.91531H12.8635C12.8635 7.71881 12.2115 8.35034 11.4317 8.35034V4.35034ZM12.5682 4.35034H11.4317V8.35034H12.5682V4.35034ZM15.1365 6.91531C15.1365 5.48773 13.9756 4.35034 12.5682 4.35034V8.35034C11.7885 8.35034 11.1365 7.71881 11.1365 6.91531H15.1365ZM13.0142 9.6876C13.1937 9.7649 13.3629 9.8624 13.5188 9.97745L15.8935 6.75862C15.4941 6.46396 15.0594 6.2132 14.5964 6.01383L13.0142 9.6876ZM18.3669 7.68223C17.6547 6.45464 16.0864 6.04323 14.8648 6.74476L16.8569 10.2134C16.1786 10.603 15.3057 10.3767 14.907 9.68955L18.3669 7.68223ZM18.9347 8.6601L18.3665 7.68155L14.9074 9.69023L15.4756 10.6688L18.9347 8.6601ZM17.9934 12.1705C19.2208 11.4656 19.6516 9.89364 18.9343 8.65945L15.476 10.6694C15.0728 9.97565 15.3171 9.09479 16.0013 8.70186L17.9934 12.1705ZM14.5297 11.7125C14.5404 11.8062 14.5459 11.9021 14.5459 12H18.5459C18.5459 11.7507 18.5318 11.5039 18.5041 11.2605L14.5297 11.7125ZM14.5459 12C14.5459 12.0979 14.5404 12.1938 14.5297 12.2874L18.5041 12.7395C18.5318 12.4961 18.5459 12.2493 18.5459 12H14.5459ZM18.9343 15.3405C19.6516 14.1063 19.2208 12.5344 17.9934 11.8294L16.0013 15.2981C15.3171 14.9052 15.0728 14.0243 15.476 13.3305L18.9343 15.3405ZM18.3665 16.3184L18.9347 15.3399L15.4756 13.3312L14.9074 14.3097L18.3665 16.3184ZM14.8648 17.2552C16.0864 17.9567 17.6547 17.5453 18.3669 16.3177L14.907 14.3104C15.3057 13.6232 16.1786 13.397 16.8569 13.7865L14.8648 17.2552ZM13.5189 14.0225C13.3629 14.1376 13.1937 14.2351 13.0142 14.3124L14.5964 17.9862C15.0594 17.7868 15.4941 17.536 15.8936 17.2413L13.5189 14.0225ZM12.5682 19.6496C13.9756 19.6496 15.1365 18.5122 15.1365 17.0847H11.1365C11.1365 16.2812 11.7885 15.6496 12.5682 15.6496V19.6496ZM11.4317 19.6496H12.5682V15.6496H11.4317V19.6496ZM8.86349 17.0847C8.86349 18.5122 10.0244 19.6496 11.4317 19.6496V15.6496C12.2115 15.6496 12.8635 16.2812 12.8635 17.0847H8.86349ZM10.9858 14.3124C10.8063 14.2351 10.6371 14.1376 10.4811 14.0225L8.10634 17.2413C8.50578 17.536 8.94058 17.7868 9.40356 17.9862L10.9858 14.3124ZM5.63387 16.3191C6.34631 17.5449 7.91285 17.9566 9.13463 17.2557L7.14411 13.7861C7.82206 13.3971 8.69384 13.6237 9.09219 14.3091L5.63387 16.3191ZM5.06525 15.3399L5.63349 16.3184L9.09257 14.3097L8.52433 13.3312L5.06525 15.3399ZM6.00762 11.829C4.77938 12.5337 4.34812 14.106 5.06563 15.3405L8.52395 13.3305C8.92737 14.0247 8.68257 14.9059 7.99815 15.2986L6.00762 11.829ZM9.47028 12.2877C9.45961 12.1939 9.45405 12.098 9.45405 12H5.45405C5.45405 12.2495 5.46821 12.4964 5.49594 12.74L9.47028 12.2877ZM9.45405 12C9.45405 11.902 9.45961 11.806 9.47028 11.7123L5.49594 11.2599C5.46822 11.5035 5.45405 11.7505 5.45405 12H9.45405ZM5.06563 8.65945C4.34812 9.89398 4.77938 11.4663 6.00762 12.171L7.99815 8.70142C8.68257 9.09408 8.92737 9.97531 8.52395 10.6694L5.06563 8.65945ZM5.63349 7.68155L5.06525 8.6601L8.52433 10.6688L9.09257 9.69023L5.63349 7.68155ZM9.13463 6.74432C7.91285 6.04337 6.34631 6.45509 5.63387 7.6809L9.09219 9.69088C8.69384 10.3763 7.82206 10.6028 7.14411 10.2139L9.13463 6.74432ZM10.4811 9.97747C10.6371 9.86241 10.8063 9.76491 10.9858 9.68761L9.40353 6.01385C8.94057 6.21323 8.5058 6.464 8.10639 6.75867L10.4811 9.97747ZM7.27243 12C7.27243 14.6132 9.39996 16.7118 12 16.7118V12.7118C11.5872 12.7118 11.2724 12.3822 11.2724 12H7.27243ZM12 7.28817C9.39996 7.28817 7.27243 9.38683 7.27243 12H11.2724C11.2724 11.6178 11.5872 11.2882 12 11.2882V7.28817ZM16.7276 12C16.7276 9.38683 14.6 7.28817 12 7.28817V11.2882C12.4127 11.2882 12.7276 11.6178 12.7276 12H16.7276ZM12 16.7118C14.6 16.7118 16.7276 14.6132 16.7276 12H12.7276C12.7276 12.3822 12.4127 12.7118 12 12.7118V16.7118ZM10.9858 9.68761C11.9324 9.27992 12.8635 8.29972 12.8635 6.91531H8.86349C8.86349 6.36335 9.22148 6.09225 9.40353 6.01385L10.9858 9.68761ZM7.1437 10.2136C8.34186 10.9014 9.65311 10.5883 10.4811 9.97747L8.10639 6.75867C8.25952 6.64569 8.66423 6.47429 9.13504 6.74455L7.1437 10.2136ZM9.47028 11.7123C9.58664 10.6901 9.20175 9.39228 7.99852 8.70163L6.00725 12.1708C5.5287 11.8961 5.47408 11.452 5.49594 11.2599L9.47028 11.7123ZM10.4811 14.0225C9.6531 13.4116 8.34185 13.0986 7.1437 13.7863L9.13504 17.2554C8.66422 17.5257 8.25949 17.3543 8.10634 17.2413L10.4811 14.0225ZM7.99852 15.2983C9.20175 14.6077 9.58663 13.3099 9.47028 12.2877L5.49594 12.74C5.47408 12.548 5.5287 12.1039 6.00726 11.8292L7.99852 15.2983ZM13.0142 14.3124C12.0676 14.7201 11.1365 15.7003 11.1365 17.0847H15.1365C15.1365 17.6366 14.7785 17.9078 14.5964 17.9862L13.0142 14.3124ZM16.8565 13.7863C15.6583 13.0985 14.3469 13.4116 13.5189 14.0225L15.8936 17.2413C15.7406 17.3542 15.336 17.5256 14.8652 17.2554L16.8565 13.7863ZM12.8635 17.0847C12.8635 15.7003 11.9324 14.7201 10.9858 14.3124L9.40356 17.9862C9.22149 17.9077 8.86349 17.6366 8.86349 17.0847H12.8635ZM14.5297 12.2874C14.4135 13.3097 14.7984 14.6076 16.0017 15.2983L17.993 11.8292C18.4714 12.1038 18.5259 12.5477 18.5041 12.7395L14.5297 12.2874ZM16.0017 8.70163C14.7984 9.39235 14.4135 10.6902 14.5297 11.7125L18.5041 11.2605C18.5259 11.4523 18.4714 11.8961 17.993 12.1708L16.0017 8.70163ZM13.5188 9.97745C14.3469 10.5883 15.6583 10.9015 16.8565 10.2136L14.8652 6.74455C15.336 6.47433 15.7405 6.64574 15.8935 6.75862L13.5188 9.97745ZM11.1365 6.91531C11.1365 8.29971 12.0676 9.27992 13.0142 9.6876L14.5964 6.01383C14.7785 6.09223 15.1365 6.36334 15.1365 6.91531H11.1365Z" fill="#656B80" mask="url(#path-1-outside-1_8470_63402)"/>
</svg>
