<svg width="24" height="24" viewBox="0 0 24 24" fill="none" xmlns="http://www.w3.org/2000/svg">
<path fill-rule="evenodd" clip-rule="evenodd" d="M5.06563 15.3405L5.6335 16.3184C6.22811 17.3414 7.41787 17.7981 8.50533 17.5135C8.65194 17.6059 8.80257 17.6926 8.95687 17.7734C9.25917 18.8612 10.26 19.6496 11.4318 19.6496H12.5683C13.7399 19.6496 14.7408 18.8613 15.0431 17.7734C15.1975 17.6926 15.3481 17.6059 15.4948 17.5135C16.582 17.798 17.7725 17.3416 18.3669 16.3177L18.9347 15.3399C19.5315 14.3124 19.3328 13.051 18.5412 12.2507C18.5444 12.1674 18.546 12.0838 18.546 12C18.546 11.9161 18.5444 11.8326 18.5412 11.7493C19.3328 10.949 19.5311 9.68694 18.9343 8.65945L18.3665 7.68155C17.7721 6.6577 16.582 6.20192 15.4947 6.48647C15.4009 6.4274 15.3055 6.37064 15.2085 6.31624C15.1539 6.2856 15.0988 6.25572 15.0432 6.22661C14.7409 5.13873 13.7399 4.35034 12.5683 4.35034H11.4318C10.26 4.35034 9.25917 5.13875 8.95687 6.22662C8.80257 6.30742 8.652 6.39412 8.50539 6.48643C7.41793 6.20189 6.22811 6.65854 5.6335 7.68155L5.06527 8.6601C4.46846 9.68758 4.66726 10.9489 5.45888 11.7492C5.45571 11.8325 5.45406 11.9161 5.45406 12C5.45406 12.0839 5.45571 12.1675 5.45888 12.2508C4.66726 13.0511 4.46889 14.313 5.06563 15.3405ZM15.9435 15.5599C15.9154 15.5493 15.8878 15.5363 15.8609 15.5209C15.6771 15.4153 15.4703 15.3813 15.2672 15.4055C15.0684 15.4292 14.8732 15.5088 14.7063 15.6319C14.6967 15.639 14.687 15.6461 14.6774 15.6531C14.4077 15.8488 14.1154 16.0157 13.8053 16.1493C13.6139 16.2317 13.4465 16.3618 13.327 16.5234C13.2079 16.6845 13.1365 16.8769 13.1365 17.0847C13.1365 17.3967 12.882 17.6496 12.5683 17.6496H11.4318C11.1179 17.6496 10.8635 17.3967 10.8635 17.0847C10.8635 16.8769 10.7921 16.6845 10.673 16.5234C10.5535 16.3618 10.3861 16.2317 10.1947 16.1493C10.0916 16.1049 9.9905 16.0568 9.8915 16.0052C9.68209 15.896 9.48232 15.771 9.29372 15.6319C9.12685 15.5088 8.93154 15.4292 8.73281 15.4055C8.5298 15.3813 8.32314 15.4154 8.13942 15.5209C7.86751 15.6769 7.5201 15.5843 7.36306 15.3141L6.79482 14.3355C6.63778 14.0653 6.73098 13.7198 7.00289 13.5638C7.1885 13.4572 7.32235 13.2933 7.40242 13.1029C7.47872 12.9216 7.50618 12.7163 7.48311 12.5138C7.46395 12.3452 7.45406 12.1737 7.45406 12C7.45406 11.8262 7.46395 11.6548 7.48311 11.4861C7.50618 11.2837 7.47872 11.0784 7.40242 10.8971C7.32235 10.7067 7.1885 10.5427 7.00289 10.4362C6.73098 10.2802 6.63778 9.93465 6.79482 9.66444L7.36306 8.68588C7.5201 8.41568 7.86751 8.32309 8.13942 8.4791C8.32314 8.58458 8.5298 8.61868 8.73287 8.59448C8.9316 8.57079 9.12685 8.49121 9.29378 8.36807C9.57143 8.16321 9.87343 7.98907 10.1947 7.85072C10.3861 7.76828 10.5535 7.63821 10.673 7.47662C10.7921 7.31554 10.8635 7.12311 10.8635 6.91531C10.8635 6.60327 11.1179 6.35034 11.4318 6.35034H12.5683C12.882 6.35034 13.1365 6.60327 13.1365 6.91531C13.1365 7.12311 13.2079 7.31552 13.327 7.47662C13.4465 7.6382 13.6139 7.76826 13.8053 7.85071C14.1265 7.98904 14.4285 8.16318 14.7062 8.36803C14.8732 8.4912 15.0684 8.57077 15.2672 8.59448C15.4703 8.61871 15.677 8.58463 15.8609 8.4791C16.1325 8.32309 16.4802 8.41568 16.637 8.68588L17.2052 9.66444C17.3623 9.93465 17.269 10.2802 16.9974 10.4362C16.8117 10.5428 16.6778 10.7068 16.5977 10.8973C16.5214 11.0787 16.4939 11.284 16.5169 11.4865C16.5361 11.655 16.546 11.8264 16.546 12C16.546 12.1736 16.5361 12.3449 16.5169 12.5135C16.4939 12.716 16.5214 12.9213 16.5977 13.1026C16.6778 13.2931 16.8117 13.4572 16.9974 13.5638C17.269 13.7198 17.3623 14.0653 17.2052 14.3355L16.637 15.3141C16.5839 15.4056 16.5089 15.4767 16.4224 15.5247C16.2788 15.6045 16.1033 15.6204 15.9435 15.5599ZM14.7102 12.308C14.6822 12.5541 14.6211 12.7903 14.5313 13.012C14.4371 13.2447 14.3114 13.4614 14.1594 13.657C14.0076 13.8522 13.8296 14.0263 13.6307 14.174C13.4639 14.2979 13.2825 14.4032 13.0894 14.4869C12.8633 14.5849 12.6212 14.6534 12.3682 14.6873C12.2478 14.7035 12.1249 14.7118 12 14.7118C11.8751 14.7118 11.7523 14.7035 11.6319 14.6873C11.3788 14.6534 11.1367 14.5849 10.9107 14.4869C10.7175 14.4032 10.5361 14.2979 10.3693 14.174C10.1704 14.0263 9.99245 13.8522 9.84066 13.6569C9.68868 13.4615 9.56301 13.2448 9.46877 13.0122C9.37905 12.7905 9.31789 12.5544 9.28987 12.3082C9.27834 12.207 9.27248 12.1042 9.27248 12C9.27248 11.9448 9.27413 11.89 9.27736 11.8356C9.28029 11.7873 9.28444 11.7394 9.28987 11.6918C9.31789 11.4456 9.37905 11.2095 9.46877 10.9878C9.56301 10.7552 9.68868 10.5385 9.84066 10.343C9.99245 10.1478 10.1704 9.97369 10.3693 9.82596C10.5361 9.70213 10.7175 9.59683 10.9106 9.51311C11.1367 9.41507 11.3787 9.34662 11.6319 9.31267C11.7522 9.29651 11.8751 9.28816 12 9.28816C12.1249 9.28816 12.2478 9.29651 12.3682 9.31267C12.6212 9.3466 12.8633 9.41507 13.0894 9.51309C13.2825 9.59682 13.4639 9.70212 13.6306 9.82594C13.8296 9.97368 14.0076 10.1478 14.1594 10.343C14.3114 10.5385 14.4371 10.7553 14.5313 10.988C14.6211 11.2097 14.6822 11.4458 14.7102 11.692C14.7217 11.7931 14.7276 11.8959 14.7276 12C14.7276 12.1041 14.7217 12.2069 14.7102 12.308ZM12 12.7118C11.5873 12.7118 11.2725 12.3822 11.2725 12C11.2725 11.6178 11.5873 11.2882 12 11.2882C12.4128 11.2882 12.7276 11.6178 12.7276 12C12.7276 12.3822 12.4127 12.7118 12 12.7118Z" fill="#656B80"/>
</svg>
