<svg width="32" height="32" viewBox="0 0 32 32" fill="none" xmlns="http://www.w3.org/2000/svg">
<path d="M14.0626 7.46463L14.9287 7.68057C15.6321 7.85593 16.3679 7.85593 17.0713 7.68057L17.9374 7.46463C20.5256 6.81939 23.2041 6.56884 25.8743 6.72244C26.2626 6.74477 26.5 7.04036 26.5 7.32079V20.9345C26.5 21.2072 26.2449 21.502 25.8488 21.4792C23.0709 21.3194 20.2838 21.58 17.5898 22.2516L16.5875 22.5015C16.2017 22.5977 15.7983 22.5977 15.4125 22.5015L14.4102 22.2516C11.7162 21.58 8.92913 21.3194 6.15123 21.4792C5.75511 21.502 5.5 21.2072 5.5 20.9345V7.32079C5.5 7.04036 5.73736 6.74477 6.12568 6.72244C8.79586 6.56884 11.4744 6.81939 14.0626 7.46463Z" fill="#6F7AEC" stroke="#6F7AEC" stroke-width="2"/>
<path d="M15.25 8.98181C15.25 8.5676 15.5858 8.23181 16 8.23181C16.4142 8.23181 16.75 8.5676 16.75 8.98181V21.0179C16.75 21.4321 16.4142 21.7679 16 21.7679C15.5858 21.7679 15.25 21.4321 15.25 21.0179V8.98181Z" fill="#EEF0FD"/>
<path d="M6 24.9527C8.98464 24.4807 12.5302 25.3868 14.8579 26.0152C15.6068 26.2174 16.3932 26.2174 17.1421 26.0152C19.4698 25.3868 23.0154 24.4807 26 24.9527" stroke="#6F7AEC" stroke-width="2" stroke-linecap="round"/>
</svg>
