<svg width="24" height="24" viewBox="0 0 24 24" fill="none" xmlns="http://www.w3.org/2000/svg">
<rect x="3" y="3" width="18" height="18" rx="9" fill="#E2E2EE"/>
<path d="M12.9005 8.14505C12.9166 7.63789 12.5099 7.21799 12.0025 7.21799C11.4932 7.21799 11.0857 7.64087 11.1046 8.14981L11.2962 13.3043C11.3106 13.6915 11.6287 13.998 12.0162 13.998C12.4051 13.998 12.7238 13.6893 12.7362 13.3005L12.9005 8.14505ZM11.214 15.966C11.214 16.446 11.55 16.782 12.018 16.782C12.498 16.782 12.822 16.446 12.822 15.966C12.822 15.498 12.498 15.162 12.018 15.162C11.55 15.162 11.214 15.498 11.214 15.966Z" fill="#656B80"/>
</svg>
