<svg width="24" height="24" viewBox="0 0 24 24" fill="none" xmlns="http://www.w3.org/2000/svg">
<path fill-rule="evenodd" clip-rule="evenodd" d="M16.6092 12.1186L15.6407 11.5595C15.4099 11.4262 15.1329 11.6377 15.2005 11.8955L16.0569 15.1574C16.0993 15.3188 16.2652 15.4146 16.4262 15.3706L19.6793 14.4813C19.9364 14.411 19.981 14.0654 19.7502 13.9321L18.404 13.1549C18.716 12.1534 18.7712 11.1753 18.6053 10.2561C18.3555 8.87257 17.6183 7.69674 16.6439 6.82417C14.732 5.11191 11.7225 4.43123 9.29838 5.81704C8.81891 6.09113 8.65242 6.70202 8.92651 7.18149C9.20061 7.66095 9.81149 7.82744 10.291 7.55335C11.8174 6.68074 13.9005 7.05209 15.3097 8.31404C15.9959 8.92857 16.4763 9.72039 16.6371 10.6115C16.7199 11.0698 16.7218 11.5745 16.6092 12.1186Z" fill="#656B80"/>
<path fill-rule="evenodd" clip-rule="evenodd" d="M7.39078 11.8814L8.35924 12.4405C8.59007 12.5738 8.86709 12.3623 8.79941 12.1045L7.94306 8.84258C7.90068 8.68118 7.73474 8.58537 7.57378 8.62938L4.32066 9.51872C4.06356 9.58901 4.01894 9.93464 4.24977 10.0679L5.59595 10.8451C5.28391 11.8466 5.2287 12.8247 5.39463 13.7439C5.64441 15.1274 6.38168 16.3033 7.35602 17.1758C9.26797 18.8881 12.2774 19.5688 14.7016 18.183C15.181 17.9089 15.3475 17.298 15.0734 16.8185C14.7993 16.339 14.1884 16.1726 13.709 16.4466C12.1825 17.3193 10.0994 16.9479 8.69029 15.686C8.00409 15.0714 7.52368 14.2796 7.36281 13.3885C7.28007 12.9302 7.27815 12.4255 7.39078 11.8814Z" fill="#656B80"/>
</svg>
