<svg width="64" height="64" viewBox="0 0 64 64" fill="none" xmlns="http://www.w3.org/2000/svg">
<g clip-path="url(#clip0_7721_90999)">
<rect width="64" height="64" rx="8" fill="#292930"/>
<path d="M54.634 55.4148C54.634 62.7427 44.5004 68.6831 31.9999 68.6831C19.4994 68.6831 9.36572 62.7427 9.36572 55.4148C9.36572 48.0869 19.4994 42.1465 31.9999 42.1465C44.5004 42.1465 54.634 48.0869 54.634 55.4148Z" fill="#17161F"/>
<path d="M42.9269 28.0968C42.9269 34.1315 38.0348 39.0236 32.0001 39.0236C25.9654 39.0236 21.0732 34.1315 21.0732 28.0968C21.0732 22.062 25.9654 17.1699 32.0001 17.1699C38.0348 17.1699 42.9269 22.062 42.9269 28.0968Z" fill="#17161F"/>
</g>
<rect x="2" y="2" width="60" height="60" rx="6" stroke="#292930" stroke-width="4"/>
<defs>
<clipPath id="clip0_7721_90999">
<rect width="64" height="64" rx="8" fill="white"/>
</clipPath>
</defs>
</svg>
