<svg width="32" height="32" viewBox="0 0 32 32" fill="none" xmlns="http://www.w3.org/2000/svg">
<path fill-rule="evenodd" clip-rule="evenodd" d="M11.4286 4.27374C8.36101 4.27374 5.87427 6.76049 5.87427 9.82803V12.3093C6.17201 12.1672 6.50531 12.0877 6.85718 12.0877H7.83998V9.82803C7.83998 7.84612 9.44664 6.23946 11.4286 6.23946H20.5714C22.5533 6.23946 24.16 7.84612 24.16 9.82803V12.0875H25.1429C25.4947 12.0875 25.828 12.167 26.1257 12.309V9.82803C26.1257 6.76048 23.639 4.27374 20.5714 4.27374H11.4286ZM21.7144 15.1363H10.2857V15.7085H21.7144V15.1363Z" fill="#BBBBCC"/>
<path fill-rule="evenodd" clip-rule="evenodd" d="M20.7316 14.3732C20.7316 12.5681 22.195 11.1047 24.0002 11.1047H25.143C26.9482 11.1047 28.4116 12.5681 28.4116 14.3732V19.4575C28.4116 21.2626 26.9482 22.726 25.143 22.726H24.983L7.01733 22.7263L6.8572 22.7262C5.05201 22.7262 3.58862 21.2628 3.58862 19.4577V14.3735C3.58862 12.5683 5.05201 11.1049 6.85719 11.1049H8.00005C9.80523 11.1049 11.2686 12.5683 11.2686 14.3735V14.7258H20.7316V14.3732ZM8.98305 20.7605H23.0173L25.143 20.7603C25.8626 20.7603 26.4459 20.177 26.4459 19.4575V14.3732C26.4459 13.6537 25.8626 13.0704 25.143 13.0704H24.0002C23.2806 13.0704 22.6973 13.6537 22.6973 14.3732V16.6915H9.30291V14.3735C9.30291 13.6539 8.7196 13.0706 8.00005 13.0706H6.85719C6.13765 13.0706 5.55434 13.6539 5.55434 14.3735V19.4577C5.55434 20.1772 6.13765 20.7605 6.8572 20.7605L8.98305 20.7605Z" fill="#BBBBCC"/>
<rect x="8.28589" y="23.7263" width="2" height="4" rx="1" fill="#BBBBCC"/>
<rect x="21.7144" y="23.7263" width="2" height="4" rx="1" fill="#BBBBCC"/>
</svg>
