<svg width="183" height="42" viewBox="0 0 183 42" fill="none" xmlns="http://www.w3.org/2000/svg">
<path d="M35.2129 28.2204C32.017 39.501 20.6058 42.4647 10.4044 41.1125C2.47797 34.3516 -2.75817 23.108 3.81409 13.5501C2.80297 12.8832 1.71963 11.9571 2.15296 10.5678C4.95159 0.713493 16.9044 -0.564605 25.0656 2.30649C25.8239 -1.41667 32.3962 1.60261 29.9587 4.67745C37.0545 8.90073 43.2837 17.8474 39.2032 26.2755C37.9212 28.9798 37.1268 28.665 35.2129 28.2389V28.2204Z" fill="#6F7AEC"/>
<path d="M56.5161 31.6863H65.3641C72.9241 31.6863 77.6001 27.0383 77.6001 20.2903C77.6001 13.5423 72.9241 8.86632 65.3641 8.86632H56.5161V31.6863ZM61.6121 27.1783V13.3743H65.4481C69.8161 13.3743 72.5041 15.8943 72.5041 20.2903C72.5041 24.6863 69.8161 27.1783 65.4481 27.1783H61.6121Z" fill="#6F7AEC"/>
<path d="M91.9726 32.2463C99.0566 32.2463 104.293 27.1783 104.293 20.2623C104.293 13.3463 99.0566 8.27832 91.9726 8.27832C84.8886 8.27832 79.6526 13.3463 79.6526 20.2623C79.6526 27.1783 84.8886 32.2463 91.9726 32.2463ZM91.9726 27.6543C87.8286 27.6543 84.7486 24.5463 84.7486 20.2623C84.7486 15.9503 87.8286 12.8703 91.9726 12.8703C96.1166 12.8703 99.1966 15.9503 99.1966 20.2623C99.1966 24.5463 96.1166 27.6543 91.9726 27.6543Z" fill="#6F7AEC"/>
<path d="M124.93 8.86632H104.994V13.3743H112.414V31.6863H117.51V13.3743H124.93V8.86632Z" fill="#6F7AEC"/>
<path d="M137.938 32.2463C145.022 32.2463 150.257 27.1783 150.257 20.2623C150.257 13.3463 145.022 8.27832 137.938 8.27832C130.854 8.27832 125.617 13.3463 125.617 20.2623C125.617 27.1783 130.854 32.2463 137.938 32.2463ZM137.938 27.6543C133.794 27.6543 130.713 24.5463 130.713 20.2623C130.713 15.9503 133.794 12.8703 137.938 12.8703C142.082 12.8703 145.161 15.9503 145.161 20.2623C145.161 24.5463 142.082 27.6543 137.938 27.6543Z" fill="#6F7AEC"/>
<path d="M172.774 31.6863L167.482 23.4823C170.17 22.2223 171.654 19.8143 171.654 16.6783C171.654 11.9463 168.266 8.86632 162.47 8.86632H153.286V31.6863H158.382V24.4903H162.442L166.866 31.6863H172.774ZM158.382 13.3743H162.246C164.934 13.3743 166.558 14.5223 166.558 16.6783C166.558 18.8343 164.934 19.9823 162.246 19.9823H158.382V13.3743Z" fill="#6F7AEC"/>
<path d="M175.133 8.86632V31.6863H180.229V8.86632H175.133Z" fill="#6F7AEC"/>
</svg>
