<svg width="108" height="108" viewBox="0 0 108 108" fill="none" xmlns="http://www.w3.org/2000/svg">
<path fill-rule="evenodd" clip-rule="evenodd" d="M40.9039 24.0438C46.2423 22.6193 52.0265 22.6812 57.2286 23.7625C57.9105 23.3695 58.6456 23.0632 59.4184 22.8515C62.1861 22.0931 64.8558 22.671 66.7779 23.5518C68.6878 24.427 70.9394 26.1001 72.1492 28.8178C72.4675 29.5326 72.6887 30.2665 72.8156 31.0064C76.6811 33.9715 80.1688 37.8414 82.4933 42.3141C85.6488 48.3857 86.7993 55.964 83.0996 63.4359C82.2348 65.2109 80.556 68.2823 76.9992 69.4769C76.8823 69.5161 76.7663 69.5523 76.6512 69.5857C73.5102 75.877 68.387 80.1174 62.5341 82.6149C55.4891 85.6212 47.4729 86.1048 40.2886 85.1765L38.341 84.9249L36.8323 83.6677C31.1424 78.9261 26.1571 72.4236 23.8483 65.0277C21.939 58.9115 21.8898 52.1801 24.7907 45.7439C24.0067 43.9665 23.7058 41.7888 24.4308 39.4304C26.9999 30.6585 33.8361 25.9298 40.9039 24.0438Z" fill="#FDFDFD"/>
<g clip-path="url(#clip0_7664_143427)">
<path d="M72.0901 62.82C68.1076 76.5225 53.8876 80.1225 41.1751 78.48C31.2976 70.2675 24.7726 56.61 32.9626 45C31.7026 44.19 30.3526 43.065 30.8926 41.3775C34.3801 29.4075 49.2751 27.855 59.4451 31.3425C60.3901 26.82 68.5801 30.4875 65.5426 34.2225C74.3851 39.3525 82.1476 50.22 77.0626 60.4575C75.4651 63.7425 74.4751 63.36 72.0901 62.8425V62.82Z" fill="#6F7AEC"/>
</g>
<defs>
<clipPath id="clip0_7664_143427">
<rect width="49.41" height="49.59" fill="white" transform="translate(29.25 29.25)"/>
</clipPath>
</defs>
</svg>
