<svg width="24" height="24" viewBox="0 0 24 24" fill="none" xmlns="http://www.w3.org/2000/svg">
<path d="M2.75 7.49997C2.75 5.70505 4.20508 4.24997 6 4.24997H18C19.7949 4.24997 21.25 5.70504 21.25 7.49997V18C21.25 19.7949 19.7949 21.25 18 21.25H6C4.20507 21.25 2.75 19.7949 2.75 18V7.49997Z" stroke="#656B80" stroke-width="1.5"/>
<rect x="15" y="15" width="3" height="3" rx="1" fill="#656B80"/>
<path d="M3 9H21" stroke="#656B80" stroke-width="1.5"/>
<path fill-rule="evenodd" clip-rule="evenodd" d="M6.75 2C7.16421 2 7.5 2.36937 7.5 2.825V4.29167H6V2.825C6 2.36937 6.33579 2 6.75 2Z" fill="#656B80"/>
<path fill-rule="evenodd" clip-rule="evenodd" d="M17.25 2C17.6642 2 18 2.36937 18 2.825V4.29167H16.5V2.825C16.5 2.36937 16.8358 2 17.25 2Z" fill="#656B80"/>
</svg>
