<svg width="32" height="32" viewBox="0 0 32 32" fill="none" xmlns="http://www.w3.org/2000/svg">
<path d="M26 16C26 19.1035 25.9578 21.4027 25.7435 23.1309C25.528 24.8683 25.1544 25.8668 24.6192 26.4922C24.1068 27.0909 23.3213 27.4904 21.9189 27.7231C20.4978 27.959 18.6005 28 16 28C13.3995 28 11.5022 27.959 10.0811 27.7231C8.67867 27.4904 7.89318 27.0909 7.3808 26.4922C6.84557 25.8668 6.47202 24.8683 6.25653 23.1309C6.0422 21.4027 6 19.1035 6 16C6 12.8965 6.0422 10.5973 6.25653 8.86915C6.47202 7.13173 6.84557 6.13323 7.3808 5.50781C7.89318 4.90908 8.67867 4.50959 10.0811 4.27686C11.5022 4.04105 13.3995 4 16 4C18.6005 4 20.4978 4.04105 21.9189 4.27686C23.3213 4.50959 24.1068 4.90908 24.6192 5.50781C25.1544 6.13323 25.528 7.13173 25.7435 8.86915C25.9578 10.5973 26 12.8965 26 16Z" stroke="#BBBBCC" stroke-width="2"/>
<path d="M16.3571 9.82853C16.3571 9.9829 16.3497 10.0926 16.3402 10.1689C16.2639 10.1783 16.1542 10.1857 16 10.1857C15.8458 10.1857 15.7361 10.1783 15.6598 10.1689C15.6503 10.0926 15.6429 9.9829 15.6429 9.82853C15.6429 9.67415 15.6503 9.56444 15.6598 9.48817C15.7361 9.47871 15.8458 9.47138 16 9.47138C16.1542 9.47138 16.2639 9.47871 16.3402 9.48817C16.3497 9.56444 16.3571 9.67415 16.3571 9.82853Z" fill="#BBBBCC" stroke="#BBBBCC" stroke-width="2.28571"/>
<path d="M20.1429 18.6427C20.1429 20.8466 18.3094 22.6713 16 22.6713C13.6907 22.6713 11.8572 20.8466 11.8572 18.6427C11.8572 16.4389 13.6907 14.6142 16 14.6142C18.3094 14.6142 20.1429 16.4389 20.1429 18.6427Z" stroke="#BBBBCC" stroke-width="2"/>
</svg>
